# xmcd
#
# Track frame offsets:
# 150
# 15658
# 29072
# 43753
# 58199
# 70283
#
# Disc length: 1114 seconds
#
#
# Revision: 0
# Processed by: cddbd v1.5.2PL0 Copyright (c) Steve Scherf et al.
# Submitted via: FreeRIP 2.96 
#
DISCID=54045806
DTITLE=Billy Goat Corner [AUS] [VIC] - Billy Goat Corner
DYEAR=2016
DGENRE=Country Rock
TTITLE0=Here Comes That Rainbow Again [Kris Kristofferson cover, 1982] [from 'Billy Goat Corner' EP, Mar 2016] [MLVox]
TTITLE1=Waltz of the Angels [George Jones and Margie Singleton cover, 1962] [from 'Billy Goat Corner' EP, Mar 2016] [MLVox]
TTITLE2=Dance with Me Molly [Roger Bowling cover, 1978] [from 'Billy Goat Corner' EP, Mar 2016] [MLVox]
TTITLE3=If That's The Way You Feel [The Stanley Brothers cover, 1958] [from 'Billy Goat Corner' EP, Mar 2016] [MLVox]
TTITLE4=Billy Dee [Kris Kristofferson cover, 1971] [from 'Billy Goat Corner' EP, Mar 2016] [MLVox]
TTITLE5=Goodnight, Irene [trad.] [Lead Belly cover, 1933] [from 'Billy Goat Corner' EP, Mar 2016] [MLVox]
EXTD=
EXTT0=
EXTT1=
EXTT2=
EXTT3=
EXTT4=
EXTT5=
PLAYORDER=
